<svg width="434" height="134" viewBox="0 0 434 134" fill="none" xmlns="http://www.w3.org/2000/svg">
<rect width="434" height="133.154" fill="#774FD1"/>
<path d="M72.7588 5.63245H20.8034C6.9776 5.63245 0 12.6689 0 26.6063V101.2C0 103.026 0.935927 104.151 2.95235 104.151H18.6577C20.5371 104.151 21.747 103.026 21.747 101.2V98.3674C21.747 91.4586 24.5243 87.693 31.4258 86.967H72.7588C87.9239 86.967 94.7721 80.0741 94.7721 65.0119V27.5876C94.7721 12.5253 87.9239 5.63245 72.7588 5.63245ZM73.0479 58.6774C73.0479 66.8468 71.2826 68.5301 62.0147 68.5301H40.0014C30.741 68.5301 24.8287 71.7691 21.7394 78.1036V32.0951C21.7394 25.7607 23.2156 24.0693 30.5964 24.0693H62.0147C71.2826 24.0693 73.0479 25.7607 73.0479 33.922V58.6774Z" fill="white"/>
<path d="M144.574 46.8701C132.628 46.8701 127.522 53.2045 127.522 63.9029V101.479C127.522 103.17 126.715 104.151 124.836 104.151H110.607C108.727 104.151 107.791 103.17 107.791 101.479V32.7971C107.791 31.1058 108.727 30.1165 110.607 30.1165H122.553C124.303 30.1165 125.239 31.1058 125.239 32.7971V43.8784C127.522 34.7357 134.104 30.0846 145.784 30.0846H150.616C152.358 30.0846 153.294 31.0739 153.294 32.7652V44.1975C153.294 46.0244 152.358 46.8701 150.616 46.8701H144.574Z" fill="white"/>
<path d="M237.193 84.0231C237.193 97.9604 231.288 104.151 217.196 104.151H182.293C168.33 104.151 162.288 97.9604 162.288 84.0231V50.2607C162.288 36.3313 168.33 30.1324 182.293 30.1324H217.196C231.288 30.1324 237.193 36.3313 237.193 50.2607V84.0231ZM217.462 55.5979C217.462 48.2742 216.123 46.8701 207.799 46.8701H191.819C183.366 46.8701 182.019 48.2742 182.019 55.5979V78.6779C182.019 85.9936 183.366 87.4057 191.819 87.4057H207.799C216.123 87.4057 217.462 85.9936 217.462 78.6779V55.5979Z" fill="white"/>
<path d="M257.06 46.8701H250.341C248.591 46.8701 247.655 46.0244 247.655 44.1975V32.7971C247.655 31.1058 248.591 30.1165 250.341 30.1165H257.053V20.9739C257.06 7.0365 264.038 0 277.864 0H294.376C296.255 0 297.062 0.989258 297.062 2.67259V14.073C297.062 15.9079 296.255 16.7456 294.376 16.7456H285.655C278.267 16.7456 276.791 18.4369 276.791 24.7713V30.1165H294.376C296.255 30.1165 297.062 31.1058 297.062 32.7971V44.1975C297.062 46.0244 296.255 46.8701 294.376 46.8701H276.791V101.479C276.791 103.17 275.855 104.151 273.975 104.151H259.746C257.867 104.151 257.06 103.17 257.06 101.479V46.8701Z" fill="white"/>
<path d="M311.831 46.8701H305.127C303.385 46.8701 302.449 46.0244 302.449 44.1975V32.7971C302.449 31.1058 303.385 30.1165 305.127 30.1165H311.846V20.9739C311.831 7.0365 318.824 0 332.634 0H349.146C351.026 0 351.832 0.989258 351.832 2.67259V14.073C351.832 15.9079 351.026 16.7456 349.146 16.7456H340.419C333.038 16.7456 331.562 18.4369 331.562 24.7713V30.1165H349.146C351.026 30.1165 351.832 31.1058 351.832 32.7971V44.1975C351.832 46.0244 351.026 46.8701 349.146 46.8701H331.562V101.479C331.562 103.17 330.618 104.151 328.739 104.151H314.509C312.63 104.151 311.831 103.17 311.831 101.479V46.8701Z" fill="white"/>
<path d="M411.831 132.864H382.566C369.417 132.864 363.779 127.519 363.779 114.283V112.879C363.74 112.501 363.782 112.119 363.904 111.761C364.025 111.403 364.221 111.078 364.479 110.811C364.736 110.543 365.047 110.34 365.39 110.216C365.733 110.092 366.097 110.051 366.457 110.095H380.154C382.033 110.095 382.969 111.084 382.969 112.911V113.613C382.969 116.429 384.453 117.554 387.405 117.554H404.32C412.371 117.554 414.387 115.448 414.387 108.268V86.0654C411.298 92.3999 405.393 95.6389 396.125 95.6389H382.429C368.466 95.6389 362.287 89.448 362.287 75.5107V32.7971C362.269 32.4282 362.327 32.0596 362.458 31.7165C362.588 31.3735 362.788 31.064 363.043 30.8093C363.298 30.5547 363.602 30.361 363.936 30.2414C364.269 30.1218 364.623 30.0792 364.973 30.1165H379.34C381.082 30.1165 382.026 31.1058 382.026 32.7971V70.2054C382.026 77.5211 383.502 78.9332 391.826 78.9332H402.03C410.887 78.9332 414.38 75.1277 414.38 67.3892V32.7971C414.38 31.1058 415.316 30.1165 417.066 30.1165H431.439C431.783 30.0817 432.13 30.1272 432.455 30.2497C432.78 30.3723 433.075 30.5688 433.318 30.8251C433.562 31.0814 433.749 31.3912 433.864 31.7322C433.98 32.0732 434.023 32.4369 433.989 32.7971V110.486C433.981 125.253 426.463 132.864 411.831 132.864Z" fill="white"/>
</svg>
